<?xml version="1.0" encoding="UTF-8"?>
<!DOCTYPE svg PUBLIC "-//W3C//DTD SVG 1.1//EN" "http://www.w3.org/Graphics/SVG/1.1/DTD/svg11.dtd">
<svg xmlns="http://www.w3.org/2000/svg" version="1.1" width="1024px" height="1024px" style="shape-rendering:geometricPrecision; text-rendering:geometricPrecision; image-rendering:optimizeQuality; fill-rule:evenodd; clip-rule:evenodd" xmlns:xlink="http://www.w3.org/1999/xlink">
<g><path style="opacity:1" fill="#fefefc" d="M -0.5,-0.5 C 340.833,-0.5 682.167,-0.5 1023.5,-0.5C 1023.5,340.833 1023.5,682.167 1023.5,1023.5C 682.167,1023.5 340.833,1023.5 -0.5,1023.5C -0.5,682.167 -0.5,340.833 -0.5,-0.5 Z"/></g>
<g><path style="opacity:1" fill="#dcb831" d="M 564.5,368.5 C 564.511,366.983 565.177,365.816 566.5,365C 566.167,364.667 565.833,364.333 565.5,364C 552.5,363.667 539.5,363.333 526.5,363C 521.341,349.528 516.175,336.028 511,322.5C 510.53,325.072 509.697,326.739 508.5,327.5C 509.224,324.157 510.057,320.824 511,317.5C 516.252,331.751 521.418,346.084 526.5,360.5C 541.463,361.927 556.463,362.761 571.5,363C 569.136,364.842 566.803,366.675 564.5,368.5 Z"/></g>
<g><path style="opacity:1" fill="#d4b01e" d="M 243.5,355.5 C 243.55,358.198 242.55,360.364 240.5,362C 225.504,362.7 210.504,363.2 195.5,363.5C 195.916,362.451 197.916,361.951 201.5,362C 214.167,361.667 226.833,361.333 239.5,361C 240.977,359.188 242.31,357.355 243.5,355.5 Z"/></g>
<g><path style="opacity:1" fill="#e8be59" d="M 779.5,361.5 C 779.918,362.222 780.584,362.722 781.5,363C 795.5,363.333 809.5,363.667 823.5,364C 822.262,364.69 822.262,365.19 823.5,365.5C 818.858,369.136 814.191,372.803 809.5,376.5C 809.44,375.957 809.107,375.624 808.5,375.5C 807.084,377.139 805.417,377.973 803.5,378C 803.833,377.667 804.167,377.333 804.5,377C 802.292,375.538 801.626,373.705 802.5,371.5C 805.529,376.8 806.029,376.466 804,370.5C 803.411,368.137 801.911,367.137 799.5,367.5C 799.5,368.5 799.5,369.5 799.5,370.5C 797.334,370.579 795.334,371.246 793.5,372.5C 792.558,372.392 791.725,372.059 791,371.5C 790.692,372.308 790.192,372.975 789.5,373.5C 788.549,372.674 787.549,372.508 786.5,373C 786.833,373.333 787.167,373.667 787.5,374C 786.5,374.333 785.5,374.667 784.5,375C 786.686,376.309 788.853,376.476 791,375.5C 791.167,375.833 791.333,376.167 791.5,376.5C 790.667,376.833 789.833,377.167 789,377.5C 786.592,376.464 784.259,376.464 782,377.5C 781.544,376.256 782.044,375.423 783.5,375C 782.234,374.691 781.067,374.191 780,373.5C 779.029,374.198 777.863,374.198 776.5,373.5C 775.833,373.833 775.167,374.167 774.5,374.5C 775.397,374.669 776.397,375.002 777.5,375.5C 775.955,376.452 774.288,376.785 772.5,376.5C 772.227,378.451 772.893,379.951 774.5,381C 771.812,384.075 770.812,383.242 771.5,378.5C 769.856,378.286 768.356,378.62 767,379.5C 767.311,378.065 767.145,376.732 766.5,375.5C 767.066,374.709 767.899,374.709 769,375.5C 769.945,375.095 770.612,374.428 771,373.5C 771.333,373.833 771.667,374.167 772,374.5C 772.333,372.833 772.667,371.167 773,369.5C 774.735,371.868 775.902,371.368 776.5,368C 775.99,366.174 775.156,366.007 774,367.5C 773.529,365.754 772.862,364.087 772,362.5C 771.692,363.308 771.192,363.975 770.5,364.5C 769.779,362.314 769.113,360.147 768.5,358C 767.668,357.312 767.002,357.479 766.5,358.5C 767.074,360.059 767.74,361.559 768.5,363C 766.939,363.188 766.272,362.355 766.5,360.5C 764.712,360.215 763.045,360.548 761.5,361.5C 762.716,362.096 764.049,362.263 765.5,362C 764.308,363.912 763.308,365.912 762.5,368C 763,368.5 763.5,369 764,369.5C 764.333,368.167 764.667,366.833 765,365.5C 765.333,366.167 765.667,366.833 766,367.5C 766.249,366.376 766.749,365.376 767.5,364.5C 767.723,365.967 768.056,367.467 768.5,369C 766.043,370.154 766.043,371.488 768.5,373C 766.567,373.783 765.067,373.283 764,371.5C 762.957,375.226 762.457,374.893 762.5,370.5C 760.387,371.256 758.387,371.423 756.5,371C 757.96,371.811 758.293,372.645 757.5,373.5C 756.186,372.687 755.019,371.687 754,370.5C 754.127,373.141 755.627,374.808 758.5,375.5C 759.086,375.291 759.586,374.957 760,374.5C 761.167,376.333 762.667,377.833 764.5,379C 762.068,380.087 762.402,380.587 765.5,380.5C 764.222,381.791 763.555,383.791 763.5,386.5C 762.178,386.33 761.011,386.663 760,387.5C 759.667,386.833 759.333,386.167 759,385.5C 757.216,388.003 755.549,388.003 754,385.5C 752.506,386.747 751.006,386.747 749.5,385.5C 750.262,385.089 751.262,384.923 752.5,385C 751.304,384.346 751.304,383.846 752.5,383.5C 753.167,383.833 753.833,384.167 754.5,384.5C 754.833,383.833 755.167,383.167 755.5,382.5C 756.428,384.335 757.594,384.668 759,383.5C 759.52,381.711 759.187,380.044 758,378.5C 757.667,379.5 757.333,380.5 757,381.5C 755.989,380.663 754.822,380.33 753.5,380.5C 753.719,379.325 753.386,378.325 752.5,377.5C 751.289,378.274 751.289,379.107 752.5,380C 751.23,380.9 750.23,382.066 749.5,383.5C 748.749,382.624 748.249,381.624 748,380.5C 747.578,383.236 747.578,385.902 748,388.5C 747.311,387.643 746.478,386.977 745.5,386.5C 743.854,387.779 742.687,389.445 742,391.5C 738.894,387.56 735.061,384.56 730.5,382.5C 726.183,379.514 722.183,376.18 718.5,372.5C 715.867,369.84 713.2,367.173 710.5,364.5C 722.152,363.667 733.819,363.167 745.5,363C 746.737,362.768 747.737,362.268 748.5,361.5C 751.8,356.121 754.634,350.454 757,344.5C 759.817,335.714 762.817,327.048 766,318.5C 770.347,332.888 774.847,347.221 779.5,361.5 Z"/></g>
<g><path style="opacity:1" fill="#d6b126" d="M 375.5,343.5 C 374.173,349.314 372.34,354.981 370,360.5C 369.5,361.667 368.667,362.5 367.5,363C 354.5,363.333 341.5,363.667 328.5,364C 336.358,370.365 344.025,376.865 351.5,383.5C 342.201,377.17 333.201,370.337 324.5,363C 339.213,362.854 353.88,362.021 368.5,360.5C 370.61,354.63 372.943,348.963 375.5,343.5 Z"/></g>
<g><path style="opacity:1" fill="#d9b125" d="M 748.5,361.5 C 747.737,362.268 746.737,362.768 745.5,363C 733.819,363.167 722.152,363.667 710.5,364.5C 713.2,367.173 715.867,369.84 718.5,372.5C 713.783,369.963 709.449,366.796 705.5,363C 719.848,362.703 734.181,362.203 748.5,361.5 Z"/></g>
<g><path style="opacity:1" fill="#d8b520" d="M 779.5,361.5 C 795.493,362.111 811.493,362.611 827.5,363C 826.016,363.662 824.683,364.496 823.5,365.5C 822.262,365.19 822.262,364.69 823.5,364C 809.5,363.667 795.5,363.333 781.5,363C 780.584,362.722 779.918,362.222 779.5,361.5 Z"/></g>
<g><path style="opacity:1" fill="#e5bb53" d="M 564.5,368.5 C 554.752,375.407 545.419,382.907 536.5,391C 540.494,404.638 544.494,418.305 548.5,432C 548.167,432.5 547.833,433 547.5,433.5C 535.739,425.202 523.572,417.535 511,410.5C 498.466,417.7 486.466,425.7 475,434.5C 477.775,419.899 481.275,405.399 485.5,391C 473.862,381.183 461.862,371.85 449.5,363C 464.494,362.2 479.494,361.534 494.5,361C 499.348,349.817 504.015,338.65 508.5,327.5C 509.697,326.739 510.53,325.072 511,322.5C 516.175,336.028 521.341,349.528 526.5,363C 539.5,363.333 552.5,363.667 565.5,364C 565.833,364.333 566.167,364.667 566.5,365C 565.177,365.816 564.511,366.983 564.5,368.5 Z"/></g>
<g><path style="opacity:1" fill="#deb63b" d="M 690.5,369.5 C 690.062,369.565 689.728,369.399 689.5,369C 691.5,367.333 693.5,365.667 695.5,364C 683.5,363.333 671.5,363.333 659.5,364C 660.938,364.219 662.271,364.719 663.5,365.5C 662.469,366.7 661.635,368.034 661,369.5C 660.1,368.23 658.934,367.23 657.5,366.5C 657.709,365.914 658.043,365.414 658.5,365C 655.336,364.008 652.836,362.175 651,359.5C 646.798,347.229 642.798,334.895 639,322.5C 638.375,324.707 637.541,326.04 636.5,326.5C 637.022,323.432 637.855,320.432 639,317.5C 643.041,332.29 647.874,346.79 653.5,361C 668.825,361.864 684.158,362.531 699.5,363C 696.621,365.385 693.621,367.552 690.5,369.5 Z"/></g>
<g><path style="opacity:1" fill="#e5bb54" d="M 283.5,395.5 C 284.76,406.721 287.427,417.888 291.5,429C 291.333,429.5 291.167,430 291,430.5C 286.527,427.684 282.027,425.018 277.5,422.5C 270.511,418.518 263.511,414.518 256.5,410.5C 244.115,418.113 231.949,426.113 220,434.5C 223.642,419.93 226.975,405.264 230,390.5C 218.703,381.118 207.203,372.118 195.5,363.5C 210.504,363.2 225.504,362.7 240.5,362C 242.55,360.364 243.55,358.198 243.5,355.5C 248.271,342.952 252.771,330.285 257,317.5C 260.537,332.278 265.37,346.611 271.5,360.5C 274.107,361.318 276.774,361.818 279.5,362C 292.5,362.333 305.5,362.667 318.5,363C 306.655,371.423 294.988,380.09 283.5,389C 282.395,391.12 282.395,393.287 283.5,395.5 Z"/></g>
<g><path style="opacity:1" fill="#e5bb54" d="M 690.5,369.5 C 682.186,376.303 673.686,382.97 665,389.5C 664.333,391.167 664.333,392.833 665,394.5C 668.671,407.851 672.004,421.184 675,434.5C 663.09,426.127 650.923,418.127 638.5,410.5C 625.734,417.63 613.567,425.63 602,434.5C 605.41,420.027 608.91,405.527 612.5,391C 601.122,381.287 589.455,371.953 577.5,363C 592.512,362.595 607.512,361.928 622.5,361C 627.626,349.596 632.293,338.096 636.5,326.5C 637.541,326.04 638.375,324.707 639,322.5C 642.798,334.895 646.798,347.229 651,359.5C 652.836,362.175 655.336,364.008 658.5,365C 658.043,365.414 657.709,365.914 657.5,366.5C 658.934,367.23 660.1,368.23 661,369.5C 661.635,368.034 662.469,366.7 663.5,365.5C 662.271,364.719 660.938,364.219 659.5,364C 671.5,363.333 683.5,363.333 695.5,364C 693.5,365.667 691.5,367.333 689.5,369C 689.728,369.399 690.062,369.565 690.5,369.5 Z"/></g>
<g><path style="opacity:1" fill="#e5bb55" d="M 351.5,383.5 C 344.025,376.865 336.358,370.365 328.5,364C 341.5,363.667 354.5,363.333 367.5,363C 368.667,362.5 369.5,361.667 370,360.5C 372.34,354.981 374.173,349.314 375.5,343.5C 378.371,334.72 381.538,326.054 385,317.5C 389.758,332.176 394.925,346.676 400.5,361C 415.829,361.773 431.162,362.44 446.5,363C 434.399,371.468 422.565,380.301 411,389.5C 412.349,398.906 414.349,408.24 417,417.5C 418.617,423.164 420.451,428.664 422.5,434C 409.852,426.153 397.185,417.986 384.5,409.5C 372.42,417.957 360.253,426.29 348,434.5C 351.241,420.369 354.741,406.203 358.5,392C 358.333,391.167 358.167,390.333 358,389.5C 355.336,388.002 353.17,386.002 351.5,383.5 Z"/></g>
<g><path style="opacity:1" fill="#e3b951" d="M 809.5,376.5 C 802.834,380.844 796.834,385.844 791.5,391.5C 795.271,405.959 799.104,420.293 803,434.5C 790.991,425.996 778.657,417.996 766,410.5C 753.408,418.091 741.074,426.091 729,434.5C 732.24,420.372 735.74,406.205 739.5,392C 736.922,388.39 733.922,385.223 730.5,382.5C 735.061,384.56 738.894,387.56 742,391.5C 742.687,389.445 743.854,387.779 745.5,386.5C 746.478,386.977 747.311,387.643 748,388.5C 747.578,385.902 747.578,383.236 748,380.5C 748.249,381.624 748.749,382.624 749.5,383.5C 750.23,382.066 751.23,380.9 752.5,380C 751.289,379.107 751.289,378.274 752.5,377.5C 753.386,378.325 753.719,379.325 753.5,380.5C 754.822,380.33 755.989,380.663 757,381.5C 757.333,380.5 757.667,379.5 758,378.5C 759.187,380.044 759.52,381.711 759,383.5C 757.594,384.668 756.428,384.335 755.5,382.5C 755.167,383.167 754.833,383.833 754.5,384.5C 753.833,384.167 753.167,383.833 752.5,383.5C 751.304,383.846 751.304,384.346 752.5,385C 751.262,384.923 750.262,385.089 749.5,385.5C 751.006,386.747 752.506,386.747 754,385.5C 755.549,388.003 757.216,388.003 759,385.5C 759.333,386.167 759.667,386.833 760,387.5C 761.011,386.663 762.178,386.33 763.5,386.5C 763.555,383.791 764.222,381.791 765.5,380.5C 762.402,380.587 762.068,380.087 764.5,379C 762.667,377.833 761.167,376.333 760,374.5C 759.586,374.957 759.086,375.291 758.5,375.5C 755.627,374.808 754.127,373.141 754,370.5C 755.019,371.687 756.186,372.687 757.5,373.5C 758.293,372.645 757.96,371.811 756.5,371C 758.387,371.423 760.387,371.256 762.5,370.5C 762.457,374.893 762.957,375.226 764,371.5C 765.067,373.283 766.567,373.783 768.5,373C 766.043,371.488 766.043,370.154 768.5,369C 768.056,367.467 767.723,365.967 767.5,364.5C 766.749,365.376 766.249,366.376 766,367.5C 765.667,366.833 765.333,366.167 765,365.5C 764.667,366.833 764.333,368.167 764,369.5C 763.5,369 763,368.5 762.5,368C 763.308,365.912 764.308,363.912 765.5,362C 764.049,362.263 762.716,362.096 761.5,361.5C 763.045,360.548 764.712,360.215 766.5,360.5C 766.272,362.355 766.939,363.188 768.5,363C 767.74,361.559 767.074,360.059 766.5,358.5C 767.002,357.479 767.668,357.312 768.5,358C 769.113,360.147 769.779,362.314 770.5,364.5C 771.192,363.975 771.692,363.308 772,362.5C 772.862,364.087 773.529,365.754 774,367.5C 775.156,366.007 775.99,366.174 776.5,368C 775.902,371.368 774.735,371.868 773,369.5C 772.667,371.167 772.333,372.833 772,374.5C 771.667,374.167 771.333,373.833 771,373.5C 770.612,374.428 769.945,375.095 769,375.5C 767.899,374.709 767.066,374.709 766.5,375.5C 767.145,376.732 767.311,378.065 767,379.5C 768.356,378.62 769.856,378.286 771.5,378.5C 770.812,383.242 771.812,384.075 774.5,381C 772.893,379.951 772.227,378.451 772.5,376.5C 774.288,376.785 775.955,376.452 777.5,375.5C 776.397,375.002 775.397,374.669 774.5,374.5C 775.167,374.167 775.833,373.833 776.5,373.5C 777.863,374.198 779.029,374.198 780,373.5C 781.067,374.191 782.234,374.691 783.5,375C 782.044,375.423 781.544,376.256 782,377.5C 784.259,376.464 786.592,376.464 789,377.5C 789.833,377.167 790.667,376.833 791.5,376.5C 791.333,376.167 791.167,375.833 791,375.5C 788.853,376.476 786.686,376.309 784.5,375C 785.5,374.667 786.5,374.333 787.5,374C 787.167,373.667 786.833,373.333 786.5,373C 787.549,372.508 788.549,372.674 789.5,373.5C 790.192,372.975 790.692,372.308 791,371.5C 791.725,372.059 792.558,372.392 793.5,372.5C 795.334,371.246 797.334,370.579 799.5,370.5C 799.5,369.5 799.5,368.5 799.5,367.5C 801.911,367.137 803.411,368.137 804,370.5C 806.029,376.466 805.529,376.8 802.5,371.5C 801.626,373.705 802.292,375.538 804.5,377C 804.167,377.333 803.833,377.667 803.5,378C 805.417,377.973 807.084,377.139 808.5,375.5C 809.107,375.624 809.44,375.957 809.5,376.5 Z"/></g>
<g><path style="opacity:1" fill="#d8b32d" d="M 283.5,395.5 C 287.134,408.552 290.634,421.552 294,434.5C 288.038,431.024 282.538,427.024 277.5,422.5C 282.027,425.018 286.527,427.684 291,430.5C 291.167,430 291.333,429.5 291.5,429C 287.427,417.888 284.76,406.721 283.5,395.5 Z"/></g>
<g><path style="opacity:1" fill="#0d0e17" d="M 550.5,518.5 C 549.506,508.681 549.173,498.681 549.5,488.5C 541.833,488.5 534.167,488.5 526.5,488.5C 526.666,498.506 526.5,508.506 526,518.5C 519.59,519.478 513.09,519.811 506.5,519.5C 506.5,525.833 506.5,532.167 506.5,538.5C 512.69,538.177 518.69,538.51 524.5,539.5C 518.167,539.5 511.833,539.5 505.5,539.5C 505.5,532.5 505.5,525.5 505.5,518.5C 511.833,518.5 518.167,518.5 524.5,518.5C 524.5,508.167 524.5,497.833 524.5,487.5C 533.167,487.5 541.833,487.5 550.5,487.5C 550.5,497.833 550.5,508.167 550.5,518.5 Z"/></g>
<g><path style="opacity:1" fill="#0f1018" d="M 708.5,477.5 C 713.756,477.876 717.256,480.543 719,485.5C 719.667,489.167 719.667,492.833 719,496.5C 718.623,497.942 717.79,498.942 716.5,499.5C 721.086,489.364 718.419,482.03 708.5,477.5 Z"/></g>
<g><path style="opacity:1" fill="#0e0f18" d="M 694.5,480.5 C 689.532,486.917 689.199,493.584 693.5,500.5C 690.148,498.286 688.815,495.119 689.5,491C 689.267,487.541 690.101,484.374 692,481.5C 692.671,480.748 693.504,480.414 694.5,480.5 Z"/></g>
<g><path style="opacity:1" fill="#062c4f" d="M 708.5,477.5 C 718.419,482.03 721.086,489.364 716.5,499.5C 712.087,504.804 706.42,506.637 699.5,505C 696.894,504.208 694.894,502.708 693.5,500.5C 689.199,493.584 689.532,486.917 694.5,480.5C 695.749,478.864 697.416,477.697 699.5,477C 702.696,476.195 705.696,476.362 708.5,477.5 Z"/></g>
<g><path style="opacity:1" fill="#062a4c" d="M 141.5,475.5 C 148.775,477.988 155.942,480.988 163,484.5C 163.167,488.5 163.333,492.5 163.5,496.5C 163.491,500.893 162.824,504.893 161.5,508.5C 154.958,505.102 148.291,502.102 141.5,499.5C 139.524,497.989 137.191,497.156 134.5,497C 128.5,496.333 122.5,496.333 116.5,497C 113.975,497.424 111.975,498.59 110.5,500.5C 102.872,506.118 100.706,513.452 104,522.5C 107.536,527.02 112.036,530.186 117.5,532C 128.817,535.55 139.817,539.883 150.5,545C 170.542,559.864 175.375,578.697 165,601.5C 159.312,610.361 151.479,616.361 141.5,619.5C 136.909,620.638 132.243,621.471 127.5,622C 118.317,622.197 109.317,622.363 100.5,622.5C 99.5084,622.672 98.8417,622.338 98.5,621.5C 92.3809,619.166 85.7142,616.499 78.5,613.5C 77.8783,612.373 77.045,611.373 76,610.5C 75.3333,602.833 75.3333,595.167 76,587.5C 78.3974,589.782 81.2307,591.116 84.5,591.5C 91.3343,595.614 98.8343,598.281 107,599.5C 108.07,599.472 108.903,599.139 109.5,598.5C 110.492,598.328 111.158,598.662 111.5,599.5C 116.316,600.65 121.316,600.816 126.5,600C 129.666,599.678 132.333,598.511 134.5,596.5C 142.794,590.143 144.628,582.143 140,572.5C 136.613,568.554 132.446,565.72 127.5,564C 114.492,560.555 102.158,555.555 90.5,549C 77.1533,536.953 72.6533,522.12 77,504.5C 83.3748,486.885 95.8748,476.718 114.5,474C 121.5,473.333 128.5,473.333 135.5,474C 137.708,474.191 139.708,474.691 141.5,475.5 Z"/></g>
<g><path style="opacity:1" fill="#060913" d="M 141.5,499.5 C 131.025,496.511 120.692,496.844 110.5,500.5C 111.975,498.59 113.975,497.424 116.5,497C 122.5,496.333 128.5,496.333 134.5,497C 137.191,497.156 139.524,497.989 141.5,499.5 Z"/></g>
<g><path style="opacity:1" fill="#0c0f1a" d="M 141.5,475.5 C 149.457,476.875 156.957,479.541 164,483.5C 164.667,492.833 164.667,502.167 164,511.5C 162.955,510.627 162.122,509.627 161.5,508.5C 162.824,504.893 163.491,500.893 163.5,496.5C 163.333,492.5 163.167,488.5 163,484.5C 155.942,480.988 148.775,477.988 141.5,475.5 Z"/></g>
<g><path style="opacity:1" fill="#1f242d" d="M 250.5,518.5 C 240.861,517.64 231.194,517.307 221.5,517.5C 231.244,514.813 240.911,515.146 250.5,518.5 Z"/></g>
<g><path style="opacity:1" fill="#000107" d="M 550.5,518.5 C 559.5,518.5 568.5,518.5 577.5,518.5C 577.5,525.5 577.5,532.5 577.5,539.5C 568.5,539.5 559.5,539.5 550.5,539.5C 550.5,557.5 550.5,575.5 550.5,593.5C 549.503,575.341 549.17,557.008 549.5,538.5C 558.5,538.5 567.5,538.5 576.5,538.5C 576.5,532.167 576.5,525.833 576.5,519.5C 567.651,519.826 558.984,519.493 550.5,518.5 Z"/></g>
<g><path style="opacity:1" fill="#040814" d="M 692.5,518.5 C 701.167,518.5 709.833,518.5 718.5,518.5C 718.5,552.833 718.5,587.167 718.5,621.5C 709.833,621.5 701.167,621.5 692.5,621.5C 692.5,587.167 692.5,552.833 692.5,518.5 Z"/></g>
<g><path style="opacity:1" fill="#0a0f1a" d="M 297.5,526.5 C 291.717,531.941 286.717,537.941 282.5,544.5C 285.329,536.673 290.329,530.673 297.5,526.5 Z"/></g>
<g><path style="opacity:1" fill="#0b0d18" d="M 856.5,535.5 C 845.524,554.515 843.524,574.515 850.5,595.5C 848.338,591.86 846.838,587.86 846,583.5C 845.333,574.833 845.333,566.167 846,557.5C 847.666,549.172 851.166,541.839 856.5,535.5 Z"/></g>
<g><path style="opacity:1" fill="#060f24" d="M 467.5,620.5 C 468.324,616.688 468.824,612.688 469,608.5C 469.499,612.486 469.666,616.486 469.5,620.5C 476.833,620.5 484.167,620.5 491.5,620.5C 491.5,586.833 491.5,553.167 491.5,519.5C 484.167,519.5 476.833,519.5 469.5,519.5C 469.667,542.502 469.5,565.502 469,588.5C 468.292,589.381 467.458,590.047 466.5,590.5C 467.48,566.545 467.814,542.545 467.5,518.5C 476.167,518.5 484.833,518.5 493.5,518.5C 493.5,552.833 493.5,587.167 493.5,621.5C 484.651,621.826 475.984,621.493 467.5,620.5 Z"/></g>
<g><path style="opacity:1" fill="#616b7a" d="M 398.5,518.5 C 406.984,517.507 415.651,517.174 424.5,517.5C 424.5,539.5 424.5,561.5 424.5,583.5C 423.503,562.006 423.169,540.34 423.5,518.5C 415.167,518.5 406.833,518.5 398.5,518.5 Z"/></g>
<g><path style="opacity:1" fill="#052a4e" d="M 550.5,518.5 C 558.984,519.493 567.651,519.826 576.5,519.5C 576.5,525.833 576.5,532.167 576.5,538.5C 567.5,538.5 558.5,538.5 549.5,538.5C 549.17,557.008 549.503,575.341 550.5,593.5C 551.404,594.209 551.737,595.209 551.5,596.5C 551.414,597.496 551.748,598.329 552.5,599C 554.957,600.562 557.624,601.562 560.5,602C 565.969,602.489 569.969,601.989 572.5,600.5C 573.568,599.566 574.901,599.232 576.5,599.5C 576.5,606.167 576.5,612.833 576.5,619.5C 563.008,623.824 549.675,623.491 536.5,618.5C 533.236,617.073 530.736,614.739 529,611.5C 527.063,607.354 525.729,603.021 525,598.5C 524.5,578.836 524.333,559.169 524.5,539.5C 518.69,538.51 512.69,538.177 506.5,538.5C 506.5,532.167 506.5,525.833 506.5,519.5C 513.09,519.811 519.59,519.478 526,518.5C 526.5,508.506 526.666,498.506 526.5,488.5C 534.167,488.5 541.833,488.5 549.5,488.5C 549.173,498.681 549.506,508.681 550.5,518.5 Z"/></g>
<g><path style="opacity:1" fill="#050915" d="M 398.5,518.5 C 406.833,518.5 415.167,518.5 423.5,518.5C 423.169,540.34 423.503,562.006 424.5,583.5C 424.547,586.969 425.213,590.302 426.5,593.5C 424.489,591.333 423.322,588.666 423,585.5C 422.5,563.503 422.333,541.503 422.5,519.5C 414.833,519.5 407.167,519.5 399.5,519.5C 399.333,543.836 399.5,568.169 400,592.5C 400.168,597.501 401.501,602.168 404,606.5C 406.305,609.691 409.139,613.024 412.5,616.5C 404.223,611.635 399.723,604.302 399,594.5C 398.5,569.169 398.333,543.836 398.5,518.5 Z"/></g>
<g><path style="opacity:1" fill="#0e0e17" d="M 206.5,561.5 C 205.362,571.399 207.028,580.733 211.5,589.5C 208.638,586.443 206.805,582.776 206,578.5C 205.182,572.651 205.348,566.985 206.5,561.5 Z"/></g>
<g><path style="opacity:1" fill="#04294d" d="M 693.5,519.5 C 701.5,519.5 709.5,519.5 717.5,519.5C 717.5,553.167 717.5,586.833 717.5,620.5C 709.5,620.5 701.5,620.5 693.5,620.5C 693.5,586.833 693.5,553.167 693.5,519.5 Z"/></g>
<g><path style="opacity:1" fill="#070811" d="M 277.5,555.5 C 277.189,565.324 277.522,575.324 278.5,585.5C 276.948,580.599 276.281,575.432 276.5,570C 276.588,565.132 276.921,560.299 277.5,555.5 Z"/></g>
<g><path style="opacity:1" fill="#080913" d="M 940.5,544.5 C 942.751,549.145 944.251,554.145 945,559.5C 945.499,565.491 945.666,571.491 945.5,577.5C 920.831,577.667 896.164,577.5 871.5,577C 895.831,576.5 920.164,576.333 944.5,576.5C 944.639,565.61 943.305,554.943 940.5,544.5 Z"/></g>
<g><path style="opacity:1" fill="#0d1f37" d="M 380.5,549.5 C 385.847,564.072 385.68,578.739 380,593.5C 379.284,595.879 378.117,597.879 376.5,599.5C 378.567,594.299 380.234,588.965 381.5,583.5C 378.124,585.241 374.791,586.908 371.5,588.5C 371.347,582.676 372.013,582.343 373.5,587.5C 373.833,587.333 374.167,587.167 374.5,587C 373.663,585.989 373.33,584.822 373.5,583.5C 377.056,583.725 377.39,582.892 374.5,581C 374.645,580.228 374.978,579.561 375.5,579C 377.218,578.654 378.885,578.154 380.5,577.5C 380.833,577.833 381.167,578.167 381.5,578.5C 380.675,579.386 379.675,579.719 378.5,579.5C 378.413,582.598 378.913,582.932 380,580.5C 380.667,583.167 381.333,583.167 382,580.5C 382.93,570.064 382.43,559.731 380.5,549.5 Z"/></g>
<g><path style="opacity:1" fill="#0b1426" d="M 769.5,524.5 C 767.769,527.564 765.602,530.231 763,532.5C 762.586,532.043 762.086,531.709 761.5,531.5C 760.509,527.555 760.176,523.555 760.5,519.5C 753.167,519.5 745.833,519.5 738.5,519.5C 738.5,553.167 738.5,586.833 738.5,620.5C 745.833,620.5 753.167,620.5 760.5,620.5C 760.173,597.592 760.506,574.758 761.5,552C 760.692,551.692 760.025,551.192 759.5,550.5C 760.691,550.595 762.025,550.262 763.5,549.5C 762.52,573.455 762.186,597.455 762.5,621.5C 753.833,621.5 745.167,621.5 736.5,621.5C 736.5,587.167 736.5,552.833 736.5,518.5C 745.167,518.5 753.833,518.5 762.5,518.5C 762.793,522.437 762.46,526.27 761.5,530C 763.923,528.123 766.589,526.289 769.5,524.5 Z"/></g>
<g><path style="opacity:1" fill="#0c0e17" d="M 182.5,555.5 C 180.53,568.756 181.53,581.756 185.5,594.5C 183.135,590.576 181.635,586.243 181,581.5C 180.333,574.167 180.333,566.833 181,559.5C 181.21,557.942 181.71,556.609 182.5,555.5 Z"/></g>
<g><path style="opacity:1" fill="#090c19" d="M 84.5,591.5 C 92.5281,594.842 100.861,597.175 109.5,598.5C 108.903,599.139 108.07,599.472 107,599.5C 98.8343,598.281 91.3343,595.614 84.5,591.5 Z"/></g>
<g><path style="opacity:1" fill="#072c4f" d="M 827.5,539.5 C 827.678,542.216 828.178,544.883 829,547.5C 829.5,571.831 829.667,596.164 829.5,620.5C 822.167,620.5 814.833,620.5 807.5,620.5C 807.667,599.497 807.5,578.497 807,557.5C 806.832,578.671 806.332,599.671 805.5,620.5C 805.667,598.164 805.5,575.831 805,553.5C 802.972,543.81 796.972,538.81 787,538.5C 777.398,538.553 769.565,542.219 763.5,549.5C 762.025,550.262 760.691,550.595 759.5,550.5C 760.025,551.192 760.692,551.692 761.5,552C 760.506,574.758 760.173,597.592 760.5,620.5C 753.167,620.5 745.833,620.5 738.5,620.5C 738.5,586.833 738.5,553.167 738.5,519.5C 745.833,519.5 753.167,519.5 760.5,519.5C 760.176,523.555 760.509,527.555 761.5,531.5C 762.086,531.709 762.586,532.043 763,532.5C 765.602,530.231 767.769,527.564 769.5,524.5C 774.525,519.867 780.525,517.034 787.5,516C 807.205,513.342 820.538,521.175 827.5,539.5 Z"/></g>
<g><path style="opacity:1" fill="#072a4d" d="M 221.5,517.5 C 231.194,517.307 240.861,517.64 250.5,518.5C 256.134,519.231 261.301,521.231 266,524.5C 266.831,532.188 266.665,539.855 265.5,547.5C 259.863,544.512 254.197,541.845 248.5,539.5C 240.286,536.887 231.953,537.054 223.5,540C 222.058,540.377 221.058,541.21 220.5,542.5C 213.626,547.265 208.959,553.598 206.5,561.5C 205.348,566.985 205.182,572.651 206,578.5C 206.805,582.776 208.638,586.443 211.5,589.5C 220.436,600.075 231.769,603.909 245.5,601C 251.033,599.656 256.366,597.823 261.5,595.5C 262.5,595.5 263.5,595.5 264.5,595.5C 264.83,602.532 264.497,609.532 263.5,616.5C 262.261,616.942 261.261,617.609 260.5,618.5C 255.899,620.902 250.899,622.235 245.5,622.5C 237.826,622.666 230.159,622.5 222.5,622C 216.846,620.06 211.179,618.226 205.5,616.5C 195.709,612.041 189.043,604.708 185.5,594.5C 181.53,581.756 180.53,568.756 182.5,555.5C 187.612,534.721 200.612,522.054 221.5,517.5 Z"/></g>
<g><path style="opacity:1" fill="#0a0c12" d="M 248.5,539.5 C 238.839,537.62 229.505,538.62 220.5,542.5C 221.058,541.21 222.058,540.377 223.5,540C 231.953,537.054 240.286,536.887 248.5,539.5 Z"/></g>
<g><path style="opacity:1" fill="#161b28" d="M 551.5,596.5 C 553.308,597.907 555.308,599.074 557.5,600C 562.489,600.499 567.489,600.666 572.5,600.5C 569.969,601.989 565.969,602.489 560.5,602C 557.624,601.562 554.957,600.562 552.5,599C 551.748,598.329 551.414,597.496 551.5,596.5 Z"/></g>
<g><path style="opacity:1" fill="#0d0c12" d="M 134.5,596.5 C 132.333,598.511 129.666,599.678 126.5,600C 121.316,600.816 116.316,600.65 111.5,599.5C 119.386,599.972 127.052,598.972 134.5,596.5 Z"/></g>
<g><path style="opacity:1" fill="#0c0e1a" d="M 260.5,618.5 C 261.261,617.609 262.261,616.942 263.5,616.5C 264.497,609.532 264.83,602.532 264.5,595.5C 263.5,595.5 262.5,595.5 261.5,595.5C 262.315,594.163 263.482,593.163 265,592.5C 265.832,600.853 265.665,609.187 264.5,617.5C 263.264,618.246 261.93,618.579 260.5,618.5 Z"/></g>
<g><path style="opacity:1" fill="#062b4d" d="M 426.5,593.5 C 433.488,600.161 441.821,602.327 451.5,600C 457.171,597.834 462.171,594.668 466.5,590.5C 467.458,590.047 468.292,589.381 469,588.5C 469.5,565.502 469.667,542.502 469.5,519.5C 476.833,519.5 484.167,519.5 491.5,519.5C 491.5,553.167 491.5,586.833 491.5,620.5C 484.167,620.5 476.833,620.5 469.5,620.5C 469.666,616.486 469.499,612.486 469,608.5C 468.824,612.688 468.324,616.688 467.5,620.5C 467.666,616.486 467.499,612.486 467,608.5C 456.18,621.663 442.347,626.497 425.5,623C 420.421,622.047 416.087,619.88 412.5,616.5C 409.139,613.024 406.305,609.691 404,606.5C 401.501,602.168 400.168,597.501 400,592.5C 399.5,568.169 399.333,543.836 399.5,519.5C 407.167,519.5 414.833,519.5 422.5,519.5C 422.333,541.503 422.5,563.503 423,585.5C 423.322,588.666 424.489,591.333 426.5,593.5 Z"/></g>
<g><path style="opacity:1" fill="#0c1120" d="M 827.5,539.5 C 829.264,543.205 830.431,547.205 831,551.5C 831.5,574.831 831.667,598.164 831.5,621.5C 822.651,621.826 813.984,621.493 805.5,620.5C 806.332,599.671 806.832,578.671 807,557.5C 807.5,578.497 807.667,599.497 807.5,620.5C 814.833,620.5 822.167,620.5 829.5,620.5C 829.667,596.164 829.5,571.831 829,547.5C 828.178,544.883 827.678,542.216 827.5,539.5 Z"/></g>
<g><path style="opacity:1" fill="#101119" d="M 874.5,590.5 C 884.974,601.042 897.641,604.875 912.5,602C 919.442,601.074 926.109,599.24 932.5,596.5C 931.942,597.79 930.942,598.623 929.5,599C 917.835,603.176 905.835,604.509 893.5,603C 885.066,601.798 878.733,597.632 874.5,590.5 Z"/></g>
<g><path style="opacity:1" fill="#030207" d="M 938.5,613.5 C 939.123,606.745 938.456,600.412 936.5,594.5C 937.122,593.373 937.955,592.373 939,591.5C 939.822,599.012 939.655,606.345 938.5,613.5 Z"/></g>
<g><path style="opacity:1" fill="#0d1627" d="M 84.5,591.5 C 81.2307,591.116 78.3974,589.782 76,587.5C 75.3333,595.167 75.3333,602.833 76,610.5C 77.045,611.373 77.8783,612.373 78.5,613.5C 76.629,613.141 75.129,612.141 74,610.5C 73.3333,601.833 73.3333,593.167 74,584.5C 77.3075,587.229 80.8075,589.562 84.5,591.5 Z"/></g>
<g><path style="opacity:1" fill="#082b4e" d="M 940.5,544.5 C 943.305,554.943 944.639,565.61 944.5,576.5C 920.164,576.333 895.831,576.5 871.5,577C 896.164,577.5 920.831,577.667 945.5,577.5C 921.006,578.498 896.339,578.831 871.5,578.5C 871.684,582.716 872.684,586.716 874.5,590.5C 878.733,597.632 885.066,601.798 893.5,603C 905.835,604.509 917.835,603.176 929.5,599C 930.942,598.623 931.942,597.79 932.5,596.5C 933.514,595.326 934.847,594.66 936.5,594.5C 938.456,600.412 939.123,606.745 938.5,613.5C 935.753,616.207 932.42,617.873 928.5,618.5C 925.33,619.084 922.163,619.75 919,620.5C 915.888,620.419 914.888,619.085 916,616.5C 914.492,618.838 912.325,619.838 909.5,619.5C 909.5,620.5 909.5,621.5 909.5,622.5C 902.833,622.5 896.167,622.5 889.5,622.5C 871.249,620.892 858.249,611.892 850.5,595.5C 843.524,574.515 845.524,554.515 856.5,535.5C 864.596,524.439 875.596,517.939 889.5,516C 908.633,513.371 924.133,519.538 936,534.5C 938.22,537.54 939.72,540.873 940.5,544.5 Z"/></g>
<g><path style="opacity:1" fill="#030406" d="M 872.5,555.5 C 872.5,556.5 872.5,557.5 872.5,558.5C 888.167,558.5 903.833,558.5 919.5,558.5C 903.675,559.496 887.675,559.83 871.5,559.5C 871.232,557.901 871.566,556.568 872.5,555.5 Z"/></g>
<g><path style="opacity:1" fill="#fcfcfb" d="M 919.5,558.5 C 903.833,558.5 888.167,558.5 872.5,558.5C 872.5,557.5 872.5,556.5 872.5,555.5C 880.061,536.806 893.061,531.973 911.5,541C 917.691,545.528 920.358,551.361 919.5,558.5 Z"/></g>
<g><path style="opacity:1" fill="#062b4e" d="M 380.5,549.5 C 382.43,559.731 382.93,570.064 382,580.5C 381.333,583.167 380.667,583.167 380,580.5C 378.913,582.932 378.413,582.598 378.5,579.5C 379.675,579.719 380.675,579.386 381.5,578.5C 381.167,578.167 380.833,577.833 380.5,577.5C 378.885,578.154 377.218,578.654 375.5,579C 374.978,579.561 374.645,580.228 374.5,581C 377.39,582.892 377.056,583.725 373.5,583.5C 373.33,584.822 373.663,585.989 374.5,587C 374.167,587.167 373.833,587.333 373.5,587.5C 372.013,582.343 371.347,582.676 371.5,588.5C 374.791,586.908 378.124,585.241 381.5,583.5C 380.234,588.965 378.567,594.299 376.5,599.5C 373.894,606.439 369.228,611.439 362.5,614.5C 342.325,624.746 321.992,625.079 301.5,615.5C 289.517,608.894 281.851,598.894 278.5,585.5C 277.522,575.324 277.189,565.324 277.5,555.5C 278.602,551.508 280.268,547.841 282.5,544.5C 286.717,537.941 291.717,531.941 297.5,526.5C 303.891,521.479 311.224,518.312 319.5,517C 341.573,512.884 359.74,519.384 374,536.5C 377.238,540.309 379.404,544.642 380.5,549.5 Z"/></g>
<g><path style="opacity:1" fill="#070a18" d="M 304.5,554.5 C 302.728,562.371 302.062,570.371 302.5,578.5C 301.048,577.245 300.382,574.412 300.5,570C 300.52,564.368 301.853,559.202 304.5,554.5 Z"/></g>
<g><path style="opacity:1" fill="#181c28" d="M 356.5,553.5 C 358.067,554.681 358.901,556.347 359,558.5C 360.424,564.776 360.758,571.109 360,577.5C 359.495,580.865 358.328,583.865 356.5,586.5C 359.135,575.486 359.135,564.486 356.5,553.5 Z"/></g>
<g><path style="opacity:1" fill="#fdfdfc" d="M 343.5,540.5 C 348.833,543.833 353.167,548.167 356.5,553.5C 359.135,564.486 359.135,575.486 356.5,586.5C 345.435,602.449 331.102,605.949 313.5,597C 307.348,592.18 303.682,586.013 302.5,578.5C 302.062,570.371 302.728,562.371 304.5,554.5C 307.07,549.262 310.736,544.928 315.5,541.5C 324.696,537.896 334.029,537.563 343.5,540.5 Z"/></g>
<g><path style="opacity:1" fill="#090e18" d="M 343.5,540.5 C 334.029,537.563 324.696,537.896 315.5,541.5C 316.975,539.59 318.975,538.424 321.5,538C 327.167,537.333 332.833,537.333 338.5,538C 340.491,538.374 342.158,539.207 343.5,540.5 Z"/></g>
<g><path style="opacity:1" fill="#101117" d="M 78.5,613.5 C 85.7142,616.499 92.3809,619.166 98.5,621.5C 91.0846,620.451 84.4179,617.784 78.5,613.5 Z"/></g>
<g><path style="opacity:1" fill="#192434" d="M 928.5,618.5 C 915.881,624.107 902.881,625.44 889.5,622.5C 896.167,622.5 902.833,622.5 909.5,622.5C 909.5,621.5 909.5,620.5 909.5,619.5C 912.325,619.838 914.492,618.838 916,616.5C 914.888,619.085 915.888,620.419 919,620.5C 922.163,619.75 925.33,619.084 928.5,618.5 Z"/></g>
<g><path style="opacity:1" fill="#080a11" d="M 621.5,596.5 C 640.5,596.5 659.5,596.5 678.5,596.5C 678.5,604.833 678.5,613.167 678.5,621.5C 650.5,621.5 622.5,621.5 594.5,621.5C 594.5,572.5 594.5,523.5 594.5,474.5C 603.5,474.5 612.5,474.5 621.5,474.5C 621.5,515.167 621.5,555.833 621.5,596.5 Z"/></g>
<g><path style="opacity:1" fill="#042b4f" d="M 618.5,475.5 C 620.165,515.656 621.165,555.99 621.5,596.5C 639.659,597.497 657.992,597.83 676.5,597.5C 676.5,605.167 676.5,612.833 676.5,620.5C 649.833,620.5 623.167,620.5 596.5,620.5C 596.5,572.5 596.5,524.5 596.5,476.5C 604.019,476.825 611.352,476.492 618.5,475.5 Z"/></g>
<g><path style="opacity:1" fill="#001032" d="M 618.5,475.5 C 611.352,476.492 604.019,476.825 596.5,476.5C 596.5,524.5 596.5,572.5 596.5,620.5C 595.501,572.336 595.168,524.003 595.5,475.5C 603.167,475.5 610.833,475.5 618.5,475.5 Z"/></g>
<g><path style="opacity:1" fill="#16181e" d="M 141.5,619.5 C 128.284,624.824 114.617,625.824 100.5,622.5C 109.317,622.363 118.317,622.197 127.5,622C 132.243,621.471 136.909,620.638 141.5,619.5 Z"/></g>
<g><path style="opacity:1" fill="#13151a" d="M 205.5,616.5 C 211.179,618.226 216.846,620.06 222.5,622C 230.159,622.5 237.826,622.666 245.5,622.5C 231.394,626.082 218.06,624.082 205.5,616.5 Z"/></g>
<g><path style="opacity:1" fill="#10131c" d="M 362.5,614.5 C 357.859,618.226 352.526,620.726 346.5,622C 330.348,626.729 315.348,624.562 301.5,615.5C 321.992,625.079 342.325,624.746 362.5,614.5 Z"/></g>
<g><path style="opacity:1" fill="#12141c" d="M 536.5,618.5 C 549.675,623.491 563.008,623.824 576.5,619.5C 576.5,612.833 576.5,606.167 576.5,599.5C 577.499,605.742 577.833,612.742 577.5,620.5C 567.811,624.066 557.811,625.232 547.5,624C 543.213,623.19 539.546,621.357 536.5,618.5 Z"/></g>
</svg>
